<svg width="19" height="19" viewBox="0 0 19 19" fill="none" xmlns="http://www.w3.org/2000/svg">
<path fill-rule="evenodd" clip-rule="evenodd" d="M5.85133 0.395404C6.8288 0.352905 7.16879 0.352905 9.6762 0.352905C12.1836 0.352905 12.5236 0.352905 13.5011 0.395404C14.4786 0.437903 15.1585 0.607897 15.7535 0.82039C16.3485 1.07538 16.901 1.37287 17.411 1.88286C17.9209 2.39284 18.2609 2.90282 18.4734 3.5403C18.6859 4.13529 18.8559 4.81526 18.8984 5.79273C18.9409 6.7702 18.9409 7.11019 18.9409 9.61761C18.9409 12.125 18.9409 12.465 18.8984 13.4425C18.8559 14.42 18.6859 15.0999 18.4734 15.6949C18.2184 16.2899 17.9209 16.8424 17.411 17.3524C16.901 17.8624 16.391 18.2023 15.7535 18.4148C15.1585 18.6273 14.4786 18.7973 13.5011 18.8398C12.5236 18.8823 12.1836 18.8823 9.6762 18.8823C7.16879 18.8823 6.8288 18.8823 5.85133 18.8398C4.87386 18.7973 4.19388 18.6273 3.5989 18.4148C3.00392 18.1598 2.45144 17.8624 1.94145 17.3524C1.43147 16.8424 1.09148 16.3324 0.878987 15.6949C0.666493 15.0999 0.496499 14.42 0.454 13.4425C0.411502 12.465 0.411499 12.125 0.411499 9.61761C0.411499 7.11019 0.411502 6.7702 0.454 5.79273C0.496499 4.81526 0.666493 4.13529 0.878987 3.5403C1.13398 2.94532 1.43147 2.39284 1.94145 1.88286C2.45144 1.37287 2.96142 1.03288 3.5989 0.82039C4.19388 0.607897 4.83136 0.437903 5.85133 0.395404ZM8.82623 2.01035C8.99623 2.01035 9.16622 2.01035 9.33621 2.01035H9.63371C12.0986 2.01035 12.3961 2.01035 13.3736 2.05285C14.2661 2.09535 14.776 2.26534 15.116 2.39284C15.541 2.56284 15.8385 2.77533 16.1785 3.07282C16.5185 3.41281 16.6885 3.7103 16.8585 4.13529C16.986 4.47527 17.156 4.94276 17.1985 5.87773C17.241 6.8552 17.241 7.15269 17.241 9.61761C17.241 12.0825 17.241 12.38 17.1985 13.3575C17.156 14.25 16.986 14.7599 16.8585 15.0999C16.6885 15.5249 16.476 15.8224 16.1785 16.1624C15.8385 16.5024 15.541 16.6724 15.116 16.8424C14.776 16.9699 14.3086 17.1399 13.3736 17.1824C12.3961 17.2249 12.0986 17.2249 9.63371 17.2249C7.16879 17.2249 6.8713 17.2249 5.89383 17.1824C5.00136 17.1399 4.49137 16.9699 4.15138 16.8424C3.72639 16.6724 3.4289 16.4599 3.08891 16.1624C2.74893 15.8224 2.57894 15.5249 2.40894 15.0999C2.28144 14.7599 2.11145 14.2925 2.06895 13.3575C2.02645 12.38 2.02645 12.0825 2.02645 9.61761C2.02645 7.15269 2.02645 6.8552 2.06895 5.87773C2.11145 4.98526 2.28144 4.47527 2.40894 4.13529C2.57894 3.7103 2.79142 3.41281 3.08891 3.07282C3.4289 2.73283 3.72639 2.56284 4.15138 2.39284C4.49137 2.26534 4.95886 2.09535 5.89383 2.05285C6.7863 2.05285 7.08379 2.01035 8.82623 2.01035ZM14.606 3.5828C14.0111 3.5828 13.5011 4.09279 13.5011 4.68777C13.5011 5.28275 14.0111 5.79273 14.606 5.79273C15.201 5.79273 15.711 5.28275 15.711 4.68777C15.7535 4.05029 15.2435 3.5828 14.606 3.5828ZM4.91636 9.66011C4.91636 7.02519 7.04129 4.90026 9.6762 4.90026C12.3111 4.90026 14.4361 7.02519 14.4361 9.66011C14.4361 12.295 12.3111 14.42 9.6762 14.42C7.04129 14.42 4.91636 12.295 4.91636 9.66011ZM9.6762 6.55771C11.3762 6.55771 12.7786 7.96016 12.7786 9.66011C12.7786 11.3601 11.3762 12.7625 9.6762 12.7625C7.97626 12.7625 6.5738 11.3601 6.5738 9.66011C6.5738 7.91767 7.97626 6.55771 9.6762 6.55771Z" fill="url(#paint0_linear_219_1050)"/>
<defs>
<linearGradient id="paint0_linear_219_1050" x1="9.6762" y1="0.352905" x2="9.6762" y2="18.8823" gradientUnits="userSpaceOnUse">
<stop stop-color="#FF8800"/>
<stop offset="0.927083" stop-color="#FF3924"/>
</linearGradient>
</defs>
</svg>
