<svg width="43" height="42" viewBox="0 0 43 42" fill="none" xmlns="http://www.w3.org/2000/svg">
<rect x="0.0585938" width="42" height="42" rx="3" fill="#1D1D2B"/>
<path fill-rule="evenodd" clip-rule="evenodd" d="M17.8513 12.3954C18.8288 12.3529 19.1688 12.3529 21.6762 12.3529C24.1836 12.3529 24.5236 12.3529 25.5011 12.3954C26.4786 12.4379 27.1585 12.6079 27.7535 12.8204C28.3485 13.0754 28.901 13.3729 29.411 13.8829C29.9209 14.3928 30.2609 14.9028 30.4734 15.5403C30.6859 16.1353 30.8559 16.8153 30.8984 17.7927C30.9409 18.7702 30.9409 19.1102 30.9409 21.6176C30.9409 24.125 30.9409 24.465 30.8984 25.4425C30.8559 26.42 30.6859 27.0999 30.4734 27.6949C30.2184 28.2899 29.9209 28.8424 29.411 29.3524C28.901 29.8624 28.391 30.2023 27.7535 30.4148C27.1585 30.6273 26.4786 30.7973 25.5011 30.8398C24.5236 30.8823 24.1836 30.8823 21.6762 30.8823C19.1688 30.8823 18.8288 30.8823 17.8513 30.8398C16.8739 30.7973 16.1939 30.6273 15.5989 30.4148C15.0039 30.1598 14.4514 29.8624 13.9415 29.3524C13.4315 28.8424 13.0915 28.3324 12.879 27.6949C12.6665 27.0999 12.4965 26.42 12.454 25.4425C12.4115 24.465 12.4115 24.125 12.4115 21.6176C12.4115 19.1102 12.4115 18.7702 12.454 17.7927C12.4965 16.8153 12.6665 16.1353 12.879 15.5403C13.134 14.9453 13.4315 14.3928 13.9415 13.8829C14.4514 13.3729 14.9614 13.0329 15.5989 12.8204C16.1939 12.6079 16.8314 12.4379 17.8513 12.3954ZM20.8262 14.0104C20.9962 14.0104 21.1662 14.0104 21.3362 14.0104H21.6337C24.0986 14.0104 24.3961 14.0104 25.3736 14.0529C26.2661 14.0954 26.776 14.2653 27.116 14.3928C27.541 14.5628 27.8385 14.7753 28.1785 15.0728C28.5185 15.4128 28.6885 15.7103 28.8585 16.1353C28.986 16.4753 29.156 16.9428 29.1985 17.8777C29.241 18.8552 29.241 19.1527 29.241 21.6176C29.241 24.0825 29.241 24.38 29.1985 25.3575C29.156 26.25 28.986 26.7599 28.8585 27.0999C28.6885 27.5249 28.476 27.8224 28.1785 28.1624C27.8385 28.5024 27.541 28.6724 27.116 28.8424C26.776 28.9699 26.3086 29.1399 25.3736 29.1824C24.3961 29.2249 24.0986 29.2249 21.6337 29.2249C19.1688 29.2249 18.8713 29.2249 17.8938 29.1824C17.0014 29.1399 16.4914 28.9699 16.1514 28.8424C15.7264 28.6724 15.4289 28.4599 15.0889 28.1624C14.7489 27.8224 14.5789 27.5249 14.4089 27.0999C14.2814 26.7599 14.1114 26.2925 14.069 25.3575C14.0265 24.38 14.0264 24.0825 14.0264 21.6176C14.0264 19.1527 14.0265 18.8552 14.069 17.8777C14.1114 16.9853 14.2814 16.4753 14.4089 16.1353C14.5789 15.7103 14.7914 15.4128 15.0889 15.0728C15.4289 14.7328 15.7264 14.5628 16.1514 14.3928C16.4914 14.2653 16.9589 14.0954 17.8938 14.0529C18.7863 14.0529 19.0838 14.0104 20.8262 14.0104ZM26.606 15.5828C26.0111 15.5828 25.5011 16.0928 25.5011 16.6878C25.5011 17.2827 26.0111 17.7927 26.606 17.7927C27.201 17.7927 27.711 17.2827 27.711 16.6878C27.7535 16.0503 27.2435 15.5828 26.606 15.5828ZM16.9164 21.6601C16.9164 19.0252 19.0413 16.9003 21.6762 16.9003C24.3111 16.9003 26.4361 19.0252 26.4361 21.6601C26.4361 24.295 24.3111 26.42 21.6762 26.42C19.0413 26.42 16.9164 24.295 16.9164 21.6601ZM21.6762 18.5577C23.3762 18.5577 24.7786 19.9602 24.7786 21.6601C24.7786 23.3601 23.3762 24.7625 21.6762 24.7625C19.9763 24.7625 18.5738 23.3601 18.5738 21.6601C18.5738 19.9177 19.9763 18.5577 21.6762 18.5577Z" fill="white"/>
</svg>
