<svg width="22" height="19" viewBox="0 0 22 19" fill="none" xmlns="http://www.w3.org/2000/svg">
<path d="M16.727 18.2541C16.4437 18.2541 16.0391 18.1707 15.6344 17.9205C15.5939 17.9205 15.5939 17.8789 15.5535 17.8789L11.7496 15.0022L10.131 16.5864C9.88818 16.8366 9.48351 17.2535 8.71465 17.2535C8.47186 17.2535 8.26952 17.1701 8.10766 17.0033C7.94579 16.8366 7.86486 16.5864 7.90533 16.378L8.22906 11.8336C8.22906 11.6252 8.35046 11.4167 8.51232 11.2916L11.5473 8.49833L7.05554 11.4167C6.85321 11.5418 6.61041 11.5835 6.36761 11.5001L2.07818 10.1243C0.985595 9.79076 0.82373 9.04031 0.82373 8.74848C0.82373 8.37325 0.985596 7.62281 2.24005 7.12252L19.074 0.493613C19.7215 0.243466 20.4094 0.326848 20.8545 0.74376C21.1378 0.993908 21.6234 1.61928 21.3806 2.82832L18.5075 16.6698C18.3052 17.6287 17.8196 18.0039 17.4554 18.1707C17.1721 18.2124 16.9698 18.2541 16.727 18.2541ZM16.4437 16.503C16.5651 16.5447 16.646 16.5864 16.6865 16.5864C16.727 16.5447 16.7674 16.4197 16.8079 16.2529L19.681 2.41141C19.7215 2.16126 19.7215 1.9945 19.681 1.95281C19.6406 1.95281 19.6001 1.95281 19.5191 1.9945L2.80658 8.58171L6.40808 9.74906L16.0795 3.49538C16.6865 3.07847 17.4554 3.12016 17.8196 3.57876C18.0624 3.91229 18.1433 4.53766 17.6172 4.99626L9.76678 12.2505L9.60491 14.752L11.1022 13.2928C11.3854 13.001 11.8306 13.001 12.1543 13.2094L16.4437 16.503Z" fill="url(#paint0_linear_219_1048)"/>
<defs>
<linearGradient id="paint0_linear_219_1048" x1="11.1351" y1="0.352905" x2="11.1351" y2="18.2541" gradientUnits="userSpaceOnUse">
<stop stop-color="#FF8800"/>
<stop offset="0.927083" stop-color="#FF3924"/>
</linearGradient>
</defs>
</svg>
