<svg width="21" height="19" viewBox="0 0 21 19" fill="none" xmlns="http://www.w3.org/2000/svg">
<path d="M6.87997 18.253C4.58755 18.253 2.37556 17.5486 0.485314 16.2641C0.16357 16.0569 0.042916 15.6426 0.16357 15.2697C0.284224 14.8967 0.646186 14.6896 1.00815 14.731C1.24946 14.7724 1.53098 14.7724 1.85273 14.7724C2.81796 14.7724 3.78319 14.5653 4.66798 14.1509C3.54188 13.5708 2.6973 12.5349 2.29512 11.2504C2.21469 11.0018 2.2549 10.7118 2.41578 10.5046C1.49076 9.593 0.927712 8.3085 0.927712 6.8997V6.85826C0.927712 6.56822 1.08858 6.27817 1.32989 6.15386C1.37011 6.15386 1.37011 6.11243 1.41033 6.11243C1.08858 5.44946 0.927712 4.70362 0.927712 3.95779C0.927712 3.08764 1.1288 2.25893 1.5712 1.47166C1.69185 1.22305 1.93316 1.05731 2.21469 1.05731C2.45599 1.05731 2.6973 1.18161 2.89839 1.38879C4.50711 3.502 6.83976 4.86936 9.37349 5.28372C9.37349 2.54898 11.4648 0.352905 14.079 0.352905C15.2051 0.352905 16.3312 0.808695 17.1758 1.55453C17.8193 1.38879 18.4225 1.09874 18.9856 0.767259C19.2671 0.601518 19.6291 0.601518 19.9106 0.808695C20.1921 1.01587 20.2726 1.38879 20.1921 1.72027C20.1519 1.92745 20.0715 2.09319 19.991 2.25893C20.1921 2.25893 20.4334 2.38324 20.5541 2.54898C20.7954 2.83903 20.7954 3.25338 20.5943 3.54343C20.0715 4.3307 19.4682 4.99367 18.7845 5.6152C18.7845 5.65664 18.7845 5.69807 18.7845 5.73951C18.7845 8.76429 17.6584 11.8305 15.7279 14.1509C14.1594 16.0155 11.3442 18.253 6.87997 18.253ZM4.0245 16.1398C4.94951 16.4298 5.91474 16.5542 6.87997 16.5542C11.9072 16.5542 17.1356 12.4935 17.1356 5.69807C17.1356 5.53233 17.1356 5.36659 17.1356 5.24228C17.1356 4.95224 17.2562 4.70362 17.4573 4.53788C17.1758 4.49645 16.9747 4.28927 16.854 3.99922C16.7736 3.75061 16.8138 3.502 16.9345 3.29482C16.6932 3.33625 16.4519 3.21195 16.2508 3.04621C15.6475 2.38324 14.8834 2.01032 13.9986 2.01032C12.3094 2.01032 10.9018 3.46056 10.9018 5.28372C10.9018 5.53233 10.942 5.78094 10.9822 6.07099C11.0224 6.3196 10.9822 6.56822 10.8213 6.77539C10.6605 6.98257 10.4192 7.06544 10.1778 7.06544C7.32237 6.85826 4.58755 5.57377 2.53643 3.502C2.53643 3.66774 2.53643 3.79204 2.53643 3.95779C2.53643 5.07654 3.05926 6.07099 3.90384 6.69252C4.18537 6.8997 4.30602 7.27262 4.22559 7.64554C4.10493 7.97702 3.78319 8.22563 3.42123 8.22563C3.17992 8.22563 2.93861 8.1842 2.73752 8.14276C3.09948 9.13721 3.94406 9.92448 4.98973 10.1317C5.35169 10.2145 5.63322 10.546 5.63322 10.9189C5.63322 11.2919 5.39191 11.6648 5.02995 11.7476C4.82886 11.7891 4.62777 11.8305 4.42668 11.8719C4.98973 12.5764 5.83431 13.0321 6.7191 13.0321C7.04084 13.0321 7.36259 13.2808 7.44303 13.6122C7.56368 13.9437 7.44302 14.3166 7.20172 14.5238C6.23649 15.3111 5.19082 15.8497 4.0245 16.1398Z" fill="url(#paint0_linear_219_1045)"/>
<defs>
<linearGradient id="paint0_linear_219_1045" x1="10.4291" y1="0.352905" x2="10.4291" y2="18.253" gradientUnits="userSpaceOnUse">
<stop stop-color="#FF8800"/>
<stop offset="1" stop-color="#FF3924"/>
</linearGradient>
</defs>
</svg>
