<svg width="50" height="50" viewBox="0 0 50 50" fill="none" xmlns="http://www.w3.org/2000/svg">
<g filter="url(#filter0_d_5_76)">
<rect x="4" width="42" height="42" rx="3" fill="#1D1D2B"/>
<path d="M21.88 30.253C19.5875 30.253 17.3756 29.5486 15.4853 28.2641C15.1636 28.0569 15.0429 27.6426 15.1636 27.2697C15.2842 26.8967 15.6462 26.6896 16.0081 26.731C16.2495 26.7724 16.531 26.7724 16.8527 26.7724C17.818 26.7724 18.7832 26.5653 19.668 26.1509C18.5419 25.5708 17.6973 24.5349 17.2951 23.2504C17.2147 23.0018 17.2549 22.7118 17.4158 22.5046C16.4908 21.593 15.9277 20.3085 15.9277 18.8997V18.8583C15.9277 18.5682 16.0886 18.2782 16.3299 18.1539C16.3701 18.1539 16.3701 18.1124 16.4103 18.1124C16.0886 17.4495 15.9277 16.7036 15.9277 15.9578C15.9277 15.0876 16.1288 14.2589 16.5712 13.4717C16.6919 13.223 16.9332 13.0573 17.2147 13.0573C17.456 13.0573 17.6973 13.1816 17.8984 13.3888C19.5071 15.502 21.8398 16.8694 24.3735 17.2837C24.3735 14.549 26.4648 12.3529 29.079 12.3529C30.2051 12.3529 31.3312 12.8087 32.1758 13.5545C32.8193 13.3888 33.4225 13.0987 33.9856 12.7673C34.2671 12.6015 34.6291 12.6015 34.9106 12.8087C35.1921 13.0159 35.2726 13.3888 35.1921 13.7203C35.1519 13.9275 35.0715 14.0932 34.991 14.2589C35.1921 14.2589 35.4334 14.3832 35.5541 14.549C35.7954 14.839 35.7954 15.2534 35.5943 15.5434C35.0715 16.3307 34.4682 16.9937 33.7845 17.6152C33.7845 17.6566 33.7845 17.6981 33.7845 17.7395C33.7845 20.7643 32.6584 23.8305 30.7279 26.1509C29.1594 28.0155 26.3442 30.253 21.88 30.253ZM19.0245 28.1398C19.9495 28.4298 20.9147 28.5542 21.88 28.5542C26.9072 28.5542 32.1356 24.4935 32.1356 17.6981C32.1356 17.5323 32.1356 17.3666 32.1356 17.2423C32.1356 16.9522 32.2562 16.7036 32.4573 16.5379C32.1758 16.4964 31.9747 16.2893 31.854 15.9992C31.7736 15.7506 31.8138 15.502 31.9345 15.2948C31.6932 15.3363 31.4519 15.2119 31.2508 15.0462C30.6475 14.3832 29.8834 14.0103 28.9986 14.0103C27.3094 14.0103 25.9018 15.4606 25.9018 17.2837C25.9018 17.5323 25.942 17.7809 25.9822 18.071C26.0224 18.3196 25.9822 18.5682 25.8213 18.7754C25.6605 18.9826 25.4192 19.0654 25.1778 19.0654C22.3224 18.8583 19.5875 17.5738 17.5364 15.502C17.5364 15.6677 17.5364 15.792 17.5364 15.9578C17.5364 17.0765 18.0593 18.071 18.9038 18.6925C19.1854 18.8997 19.306 19.2726 19.2256 19.6455C19.1049 19.977 18.7832 20.2256 18.4212 20.2256C18.1799 20.2256 17.9386 20.1842 17.7375 20.1428C18.0995 21.1372 18.9441 21.9245 19.9897 22.1317C20.3517 22.2145 20.6332 22.546 20.6332 22.9189C20.6332 23.2919 20.3919 23.6648 20.0299 23.7476C19.8289 23.7891 19.6278 23.8305 19.4267 23.8719C19.9897 24.5764 20.8343 25.0321 21.7191 25.0321C22.0408 25.0321 22.3626 25.2808 22.443 25.6122C22.5637 25.9437 22.443 26.3166 22.2017 26.5238C21.2365 27.3111 20.1908 27.8497 19.0245 28.1398Z" fill="white"/>
</g>
<defs>
<filter id="filter0_d_5_76" x="0" y="0" width="50" height="50" filterUnits="userSpaceOnUse" color-interpolation-filters="sRGB">
<feFlood flood-opacity="0" result="BackgroundImageFix"/>
<feColorMatrix in="SourceAlpha" type="matrix" values="0 0 0 0 0 0 0 0 0 0 0 0 0 0 0 0 0 0 127 0" result="hardAlpha"/>
<feOffset dy="4"/>
<feGaussianBlur stdDeviation="2"/>
<feComposite in2="hardAlpha" operator="out"/>
<feColorMatrix type="matrix" values="0 0 0 0 0 0 0 0 0 0 0 0 0 0 0 0 0 0 0.25 0"/>
<feBlend mode="normal" in2="BackgroundImageFix" result="effect1_dropShadow_5_76"/>
<feBlend mode="normal" in="SourceGraphic" in2="effect1_dropShadow_5_76" result="shape"/>
</filter>
</defs>
</svg>
