<svg width="17" height="19" viewBox="0 0 17 19" fill="none" xmlns="http://www.w3.org/2000/svg">
<path d="M3.8118 4.37079H2.89675V1.07315C2.89675 0.708998 2.60098 0.41362 2.23635 0.41362C1.87171 0.41362 1.57595 0.708998 1.57595 1.07315V4.37079H0.660401C0.295768 4.37079 0 4.66617 0 5.03032V7.3785C0 7.74265 0.295768 8.03803 0.660401 8.03803C1.02503 8.03803 1.3208 7.74265 1.3208 7.3785V5.69034H3.1514V12.962H1.3213V9.63465C1.3213 9.2705 1.02553 8.97512 0.660896 8.97512C0.296264 8.97512 0.000495425 9.2705 0.000495425 9.63465V13.622C0.000495425 13.9862 0.296264 14.2815 0.660896 14.2815H1.57545V17.926C1.57545 18.2902 1.87122 18.5855 2.23585 18.5855C2.60048 18.5855 2.89625 18.2902 2.89625 17.926V14.2815H3.8113C4.17593 14.2815 4.4717 13.9862 4.4717 13.622V5.03032C4.4717 4.66567 4.17643 4.37079 3.8113 4.37079H3.8118ZM10.0368 2.75141H9.12225V1.07315C9.12225 0.708998 8.82599 0.41362 8.46136 0.41362C8.09672 0.41362 7.80096 0.708998 7.80096 1.07315V2.7519H6.8864C6.52177 2.7519 6.226 3.04728 6.226 3.41143V11.3461C6.226 11.7102 6.52177 12.0056 6.8864 12.0056H7.80096V14.4191C7.80096 14.7832 8.09672 15.0786 8.46136 15.0786C8.82599 15.0786 9.12176 14.7832 9.12176 14.4191V12.0056H10.0363C10.4009 12.0056 10.6967 11.7102 10.6967 11.3461V9.32592C10.6967 8.96176 10.4009 8.66639 10.0363 8.66639C9.67168 8.66639 9.37591 8.96176 9.37591 9.32592V10.686H7.54581V4.07096H9.37591V6.98417C9.37591 7.34832 9.67168 7.6437 10.0363 7.6437C10.4009 7.6437 10.6967 7.34832 10.6967 6.98417V3.41143C10.6967 3.04728 10.4014 2.7519 10.0363 2.7519L10.0368 2.75141ZM16.3396 8.28343H15.425V5.90557C15.425 5.54142 15.1293 5.24604 14.7646 5.24604C14.4 5.24604 14.1042 5.54142 14.1042 5.90557V8.28343H13.1897C12.8251 8.28343 12.5293 8.57881 12.5293 8.94296V15.8386C12.5293 16.2027 12.8251 16.4981 13.1897 16.4981H14.1042V17.9255C14.1042 18.2897 14.4 18.585 14.7646 18.585C15.1293 18.585 15.425 18.2897 15.425 17.9255V16.4981H16.3396C16.7042 16.4981 17 16.2027 17 15.8386V8.94296C17 8.57832 16.7047 8.28343 16.3396 8.28343ZM15.6792 15.179H13.8491V9.60299H15.6792V15.179Z" fill="white"/>
</svg>
