<svg width="43" height="42" viewBox="0 0 43 42" fill="none" xmlns="http://www.w3.org/2000/svg">
<rect x="0.706055" width="42" height="42" rx="3" fill="#1D1D2B"/>
<path d="M27.727 30.2541C27.4437 30.2541 27.0391 30.1707 26.6344 29.9205C26.5939 29.9205 26.5939 29.8789 26.5535 29.8789L22.7496 27.0022L21.131 28.5864C20.8882 28.8366 20.4835 29.2535 19.7147 29.2535C19.4719 29.2535 19.2695 29.1701 19.1077 29.0033C18.9458 28.8366 18.8649 28.5864 18.9053 28.378L19.2291 23.8336C19.2291 23.6252 19.3505 23.4167 19.5123 23.2916L22.5473 20.4983L18.0555 23.4167C17.8532 23.5418 17.6104 23.5835 17.3676 23.5001L13.0782 22.1243C11.9856 21.7908 11.8237 21.0403 11.8237 20.7485C11.8237 20.3733 11.9856 19.6228 13.2401 19.1225L30.074 12.4936C30.7215 12.2435 31.4094 12.3268 31.8545 12.7438C32.1378 12.9939 32.6234 13.6193 32.3806 14.8283L29.5075 28.6698C29.3052 29.6287 28.8196 30.0039 28.4554 30.1707C28.1721 30.2124 27.9698 30.2541 27.727 30.2541ZM27.4437 28.503C27.5651 28.5447 27.646 28.5864 27.6865 28.5864C27.727 28.5447 27.7674 28.4197 27.8079 28.2529L30.681 14.4114C30.7215 14.1613 30.7215 13.9945 30.681 13.9528C30.6406 13.9528 30.6001 13.9528 30.5191 13.9945L13.8066 20.5817L17.4081 21.7491L27.0795 15.4954C27.6865 15.0785 28.4554 15.1202 28.8196 15.5788C29.0624 15.9123 29.1433 16.5377 28.6172 16.9963L20.7668 24.2505L20.6049 26.752L22.1022 25.2928C22.3854 25.001 22.8306 25.001 23.1543 25.2094L27.4437 28.503Z" fill="white"/>
</svg>
