<svg width="78" height="32" viewBox="0 0 78 32" fill="none" xmlns="http://www.w3.org/2000/svg">
<g clip-path="url(#clip0_5_2)">
<path d="M6.02243 25.4256C4.09194 25.4013 2.16562 25.2412 0.257861 24.9466C0.0650664 24.8844 0 24.8197 0 24.6592V22.578C0.00082799 22.5376 0.0100083 22.4978 0.0269728 22.461C0.0439373 22.4243 0.0683213 22.3915 0.0986097 22.3645C0.128898 22.3375 0.164443 22.3171 0.203033 22.3043C0.241624 22.2916 0.282436 22.2869 0.322931 22.2906H0.387996C2.67262 22.451 3.89687 22.578 5.63684 22.578C8.24439 22.578 11.3026 22.1301 11.3026 19.1866C11.3026 13.9055 0.033739 15.539 0.033739 8.56224C0.033739 4.08114 4.28246 3.18539 8.08292 3.18539C9.83039 3.18833 11.5749 3.32767 13.3004 3.60213C13.4619 3.63327 13.5246 3.69793 13.5246 3.79373V3.88953L13.2354 5.77682C13.1703 5.93729 13.1076 6.00195 12.9775 6.00195H12.9124C11.8521 5.90615 9.85423 5.81035 8.24439 5.81035C5.73324 5.81035 3.44621 6.22469 3.44621 8.40177C3.44621 12.7535 14.7729 11.4099 14.7729 18.7004C14.7801 23.6318 10.8857 25.4256 6.02243 25.4256Z" fill="white"/>
<path d="M36.807 23.6006C35.1658 24.4652 32.1052 25.3921 29.1747 25.3921C21.8653 25.3921 17.5516 21.8714 17.5516 14.1929C17.5516 5.93488 23.2824 3.24765 29.0783 3.24765C31.0385 3.24123 32.9968 3.36927 34.9392 3.63086C35.132 3.66199 35.1658 3.72666 35.1658 3.82246V3.95179L34.8115 5.90374C34.7778 6.09534 34.6814 6.12648 34.5223 6.12648C33.0764 6.03067 31.3002 5.90374 29.3699 5.90374C25.1188 5.90374 21.0918 7.40782 21.0918 14.0325C21.0918 20.3673 23.8945 22.4797 29.3699 22.4797C30.0447 22.4797 32.5896 22.3839 33.7487 21.6798V14.557C33.7487 14.363 33.8451 14.2672 34.0693 14.2049L36.8407 13.9151H36.9034C37.0961 13.9151 37.1612 14.0444 37.1612 14.2049V23.1336C37.1499 23.2359 37.111 23.3333 37.0486 23.4155C36.9863 23.4977 36.9028 23.5616 36.807 23.6006V23.6006Z" fill="white"/>
<path d="M66.0395 0L74.1778 0.0694579L60.0291 13.9966L55.9202 18.0681L49.0783 24.8796L40.9062 24.9083L51.8835 13.9966L41.0388 3.21892L49.1314 3.23808L55.9129 10.0472L66.0395 0Z" fill="#FF3924"/>
<path d="M70.0255 32L41.0364 3.21413H49.1458L78 31.9545L70.0255 32Z" fill="#FF8800"/>
<path opacity="0.5" d="M55.9635 18.0537L51.8787 13.9942L51.869 22.1229L55.9635 18.0537Z" fill="#020202"/>
</g>
<defs>
<clipPath id="clip0_5_2">
<rect width="78" height="32" fill="white"/>
</clipPath>
</defs>
</svg>
